<?xml version="1.0" encoding="UTF-8" standalone="no"?>
<!-- Created with Inkscape (http://www.inkscape.org/) -->

<svg
   width="127.86354mm"
   height="44.364529mm"
   viewBox="0 0 127.86354 44.364529"
   version="1.1"
   id="svg5"
   inkscape:version="1.2 (dc2aedaf03, 2022-05-15)"
   sodipodi:docname="logo.svg"
   xmlns:inkscape="http://www.inkscape.org/namespaces/inkscape"
   xmlns:sodipodi="http://sodipodi.sourceforge.net/DTD/sodipodi-0.dtd"
   xmlns="http://www.w3.org/2000/svg"
   xmlns:svg="http://www.w3.org/2000/svg">
  <sodipodi:namedview
     id="namedview7"
     pagecolor="#ffffff"
     bordercolor="#000000"
     borderopacity="0.25"
     inkscape:showpageshadow="2"
     inkscape:pageopacity="0.0"
     inkscape:pagecheckerboard="0"
     inkscape:deskcolor="#d1d1d1"
     inkscape:document-units="mm"
     showgrid="false"
     inkscape:zoom="1.104894"
     inkscape:cx="629.92467"
     inkscape:cy="201.82931"
     inkscape:window-width="2560"
     inkscape:window-height="1057"
     inkscape:window-x="-8"
     inkscape:window-y="-8"
     inkscape:window-maximized="1"
     inkscape:current-layer="g92" />
  <defs
     id="defs2">
    <filter
       id="fx0"
       x="-21"
       y="-29.700001"
       width="252.00002"
       height="356.40002"
       filterUnits="userSpaceOnUse"
       primitiveUnits="userSpaceOnUse">
      <feComponentTransfer
         color-interpolation-filters="sRGB"
         id="feComponentTransfer17">
        <feFuncR
           type="discrete"
           tableValues="0 0"
           id="feFuncR9" />
        <feFuncG
           type="discrete"
           tableValues="0 0"
           id="feFuncG11" />
        <feFuncB
           type="discrete"
           tableValues="0 0"
           id="feFuncB13" />
        <feFuncA
           type="linear"
           slope="0.4"
           intercept="0"
           id="feFuncA15" />
      </feComponentTransfer>
      <feGaussianBlur
         stdDeviation="1.171 1.171"
         id="feGaussianBlur19" />
    </filter>
    <clipPath
       id="clip1">
      <rect
         x="213"
         y="100"
         width="792"
         height="451"
         id="rect22" />
    </clipPath>
    <clipPath
       id="clip2">
      <rect
         x="398"
         y="100"
         width="451"
         height="451"
         id="rect25" />
    </clipPath>
    <clipPath
       id="clip3">
      <rect
         x="398"
         y="100"
         width="451"
         height="451"
         id="rect28" />
    </clipPath>
    <clipPath
       id="clip4">
      <rect
         x="398"
         y="100"
         width="451"
         height="451"
         id="rect31" />
    </clipPath>
    <clipPath
       id="clip5">
      <rect
         x="757"
         y="205"
         width="248"
         height="248"
         id="rect34" />
    </clipPath>
    <clipPath
       id="clip6">
      <rect
         x="757"
         y="205"
         width="248"
         height="248"
         id="rect37" />
    </clipPath>
    <clipPath
       id="clip7">
      <rect
         x="757"
         y="205"
         width="248"
         height="248"
         id="rect40" />
    </clipPath>
    <clipPath
       id="clip8">
      <rect
         x="213"
         y="205"
         width="248"
         height="248"
         id="rect43" />
    </clipPath>
    <clipPath
       id="clip9">
      <rect
         x="213"
         y="205"
         width="248"
         height="248"
         id="rect46" />
    </clipPath>
    <clipPath
       id="clip10">
      <rect
         x="213"
         y="205"
         width="248"
         height="248"
         id="rect49" />
    </clipPath>
    <clipPath
       id="clip11">
      <rect
         x="55"
         y="46"
         width="674"
         height="66"
         id="rect52" />
    </clipPath>
    <clipPath
       id="clip12">
      <rect
         x="0"
         y="0"
         width="777"
         height="178"
         id="rect55" />
    </clipPath>
  </defs>
  <g
     inkscape:label="Livello 1"
     inkscape:groupmode="layer"
     id="layer1"
     transform="translate(0,-101.53312)">
    <g
       clip-path="url(#clip1)"
       transform="matrix(0.26458333,0,0,0.26458333,-54.105926,52.792202)"
       id="g92">
      <g
         clip-path="url(#clip2)"
         id="g66"
         transform="matrix(0.64144159,0,0,0.6058833,60.172418,67.545164)">
        <g
           clip-path="url(#clip3)"
           id="g64">
          <g
             clip-path="url(#clip4)"
             id="g62">
            <path
               d="m 600.01,452.344 h -1.409 c -6.107,-0.47 -11.275,-5.168 -12.684,-11.275 L 553.501,269.125 533.3,330.198 c -1.879,5.637 -7.047,9.396 -13.154,9.396 h -84.563 v -28.188 h 74.227 l 34.295,-102.884 c 1.879,-6.107 7.987,-9.866 14.094,-9.396 6.107,0.47 11.745,5.168 12.684,11.275 l 32.886,176.172 47.919,-126.844 c 2.348,-5.637 7.516,-9.396 13.623,-8.926 6.108,0.47 11.275,4.228 13.155,10.336 l 26.778,87.851 30.066,-32.886 c 2.819,-2.819 6.577,-4.698 10.336,-4.698 h 65.771 v 28.188 h -59.664 l -42.751,46.979 c -3.288,3.758 -8.456,5.168 -13.624,4.228 -5.168,-0.94 -8.926,-4.698 -10.335,-9.866 l -21.141,-72.348 -50.737,134.831 c -1.88,5.167 -7.517,8.926 -13.155,8.926 z"
               fill="#000000"
               fill-opacity="0.16863"
               id="path60" />
          </g>
        </g>
      </g>
      <g
         clip-path="url(#clip5)"
         id="g74"
         transform="matrix(0.64144159,0,0,0.6058833,60.172418,67.545164)">
        <g
           clip-path="url(#clip6)"
           id="g72">
          <g
             clip-path="url(#clip7)"
             id="g70">
            <path
               d="m 881,280.433 c -32.55,-64.583 -87.833,-25.833 -87.833,10.334 0,54.25 87.833,121.416 87.833,121.416 0,0 87.833,-67.166 87.833,-121.416 0,-36.167 -55.283,-74.917 -87.833,-10.334 z"
               fill="#000000"
               fill-opacity="0.16863"
               id="path68" />
          </g>
        </g>
      </g>
      <g
         clip-path="url(#clip8)"
         id="g82"
         transform="matrix(0.64144159,0,0,0.6058833,60.172418,67.545164)">
        <g
           clip-path="url(#clip9)"
           id="g80">
          <g
             clip-path="url(#clip10)"
             id="g78">
            <path
               d="m 435.167,347.342 c 7.491,-10.85 6.975,-25.575 -1.292,-35.909 1.033,-3.1 1.55,-6.2 1.55,-9.3 0,-14.725 -10.592,-27.125 -24.8,-29.966 -4.392,-12.659 -16.017,-20.925 -29.45,-20.925 -2.325,0 -4.908,0.258 -7.233,0.775 -5.425,-6.459 -13.434,-10.334 -21.7,-11.109 -8.525,-0.516 -16.792,2.325 -22.992,8.009 -8.008,-5.425 -18.083,-6.975 -27.125,-4.134 -9.3,2.842 -16.533,9.817 -19.892,19.117 -0.516,0 -1.291,0 -1.808,0 -17.05,0 -30.742,13.433 -31,30.483 0,0.517 0,1.034 0,1.55 -10.333,5.684 -16.275,16.792 -15.5,28.675 1.033,16.275 15.5,28.417 32.033,28.417 H 306 c 17.05,0 31,13.692 31.258,30.742 v 33.066 h 20.409 v -23.25 c 0,-1.033 0,-2.325 0,-3.358 0,-9.558 -0.259,-21.7 6.458,-29.45 4.133,-4.392 8.783,-8.267 13.692,-11.625 3.875,-2.325 7.233,-5.167 10.075,-8.525 1.291,-2.067 2.583,-4.133 3.358,-6.2 -5.425,-2.067 -11.108,-2.842 -16.792,-2.067 -2.841,0.259 -5.425,-1.55 -5.941,-4.391 -0.259,-2.842 1.55,-5.425 4.391,-5.942 6.975,-1.033 13.95,-0.258 20.667,2.325 0,-0.775 0,-1.292 0.258,-2.067 0.259,-4.133 -0.258,-8.266 -1.55,-12.141 -3.616,-9.3 -12.658,-13.434 -21.183,-16.792 -1.55,-0.517 -3.1,-1.033 -5.167,-1.55 l -1.55,-0.517 h -0.258 c -2.067,0.259 -3.875,0.775 -5.942,1.55 l -2.325,0.517 -2.583,0.517 c -4.392,5.166 -6.717,11.883 -6.2,18.858 0.517,6.975 3.875,13.175 9.042,17.567 2.066,1.808 2.066,4.908 0.516,7.233 -1.55,1.808 -4.65,2.067 -6.716,0.517 -3.1,-2.584 -5.684,-5.942 -7.75,-9.559 h -0.517 c -7.233,-1.291 -15.5,-2.583 -22.217,-6.975 -2.325,-1.55 -2.841,-4.65 -1.291,-6.975 1.55,-2.325 4.65,-3.1 6.975,-1.55 3.875,2.325 8.266,3.875 12.916,4.392 -0.516,-1.292 -0.775,-2.583 -1.033,-4.133 -0.517,-5.684 0.517,-11.625 2.842,-16.792 -3.617,0.517 -6.975,0.775 -10.592,0.775 -3.1,0 -6.2,-0.258 -9.3,-0.775 -5.683,6.975 -13.692,12.142 -22.475,14.208 C 285.85,316.6 275,324.092 275,336.75 c 0,2.842 -2.325,5.167 -5.167,5.167 -2.841,0 -5.166,-2.325 -5.166,-5.167 0.258,-9.817 4.65,-18.858 12.141,-25.058 -6.2,-0.775 -11.883,-3.359 -16.016,-8.009 -1.809,-2.325 -1.292,-5.425 0.775,-7.233 2.066,-1.808 5.425,-1.55 7.233,0.517 2.067,2.583 8.008,4.908 16.533,4.65 8.525,0 17.05,-3.1 23.509,-8.784 -7.492,-3.1 -13.692,-8.783 -17.567,-16.016 -1.55,-2.584 -0.517,-5.684 1.808,-6.975 2.584,-1.55 5.684,-0.517 6.975,1.808 7.75,13.95 24.025,17.825 49.6,11.883 -4.65,-3.875 -8.008,-10.075 -7.75,-19.891 0,-2.842 2.584,-5.167 5.425,-4.909 2.842,0 5.167,2.584 4.909,5.425 -0.517,11.625 5.941,13.95 16.275,17.05 1.55,0.517 3.1,0.775 4.65,1.292 2.841,-6.458 8.525,-11.367 15.5,-13.175 2.841,-0.775 5.683,1.033 6.458,3.875 0.775,2.842 -1.033,5.683 -3.875,6.458 -3.617,1.034 -6.458,3.359 -8.267,6.717 0,0.258 0,0.258 0,0.517 8.009,3.875 14.984,9.558 18.6,19.116 0.775,2.067 1.292,4.134 1.55,6.2 1.034,-0.775 1.809,-1.808 2.325,-3.1 1.809,-3.875 3.1,-7.75 3.617,-12.141 0.258,-1.809 1.55,-3.359 3.358,-4.134 1.809,-0.775 3.875,-0.258 5.167,1.034 1.55,1.291 2.067,3.1 1.55,5.166 -0.775,5.167 -2.325,10.334 -4.908,14.984 -2.584,4.391 -6.459,8.008 -11.109,10.591 -0.516,6.459 -2.583,12.917 -5.683,18.6 3.358,3.875 6.975,7.234 11.367,9.817 1.55,1.033 2.583,2.842 2.583,4.65 0,1.808 -1.033,3.617 -2.842,4.392 -1.808,0.775 -3.616,0.775 -5.166,-0.259 -4.392,-2.841 -8.525,-6.458 -12.142,-10.333 -2.583,2.067 -5.425,4.133 -8.008,5.942 -4.392,2.841 -8.267,5.941 -11.625,9.816 -4.134,4.909 -3.875,14.467 -3.875,22.734 0,1.291 0,2.325 0,3.616 v 23.25 h 20.666 c 0,-33.583 16.017,-35.391 18.084,-35.908 6.716,-1.808 24.541,-11.108 28.416,-30.225 0.517,-1.033 0.259,-2.325 0.259,-3.358 -0.259,0 -0.259,0 0,0 z"
               fill="#000000"
               fill-opacity="0.16863"
               id="path76" />
          </g>
        </g>
      </g>
      <g
         clip-path="url(#clip11)"
         filter="url(#fx0)"
         transform="matrix(0.64144159,0,0,0.6058833,202.57245,277.78667)"
         id="g88">
        <g
           clip-path="url(#clip12)"
           id="g86">
          <path
             d="M 44.7656,-48.3203 H 19.4531 v 12.5 h 23.2422 c 1.9865,0 3.4987,0.4726 4.5368,1.4178 1.038,0.9453 1.557,2.1784 1.557,3.6994 0,1.5214 -0.5087,2.7676 -1.5259,3.7387 -1.0173,0.9711 -2.5399,1.4566 -4.5679,1.4566 H 19.4531 v 14.7266 h 26.211 c 2.0393,0 3.6039,0.4988 4.6936,1.49653 1.0896,0.99772 1.6345,2.30876 1.6345,3.93311 0,1.5804 -0.5426,2.86743 -1.6278,3.86108 C 49.2792,-0.496826 47.7124,0 45.6641,0 H 14.1406 C 11.3932,0 9.39128,-0.635579 8.13477,-1.90674 6.87825,-3.1779 6.25,-5.17253 6.25,-7.89062 V -50.9375 c 0,-1.7822 0.28005,-3.2704 0.84015,-4.4644 0.5601,-1.1941 1.43677,-2.0636 2.63,-2.6087 1.19325,-0.545 2.66675,-0.8175 4.42045,-0.8175 h 30.625 c 2.065,0 3.6295,0.4857 4.6933,1.4572 1.0639,0.9715 1.5958,2.2305 1.5958,3.7771 0,1.5809 -0.5298,2.855 -1.5894,3.8224 -1.0595,0.9674 -2.6261,1.4511 -4.6997,1.4511 z m 53.3334,0 H 72.7865 v 12.5 h 23.2421 c 1.9865,0 3.4988,0.4726 4.5364,1.4178 1.038,0.9453 1.557,2.1784 1.557,3.6994 0,1.5214 -0.508,2.7676 -1.525,3.7387 -1.0177,0.9711 -2.5404,1.4566 -4.5684,1.4566 H 72.7865 v 14.7266 h 26.2109 c 2.0396,0 3.6036,0.4988 4.6936,1.49653 1.09,0.99772 1.635,2.30876 1.635,3.93311 0,1.5804 -0.543,2.86743 -1.628,3.86108 C 102.613,-0.496826 101.046,0 98.9974,0 H 67.474 C 64.7266,0 62.7246,-0.635579 61.4681,-1.90674 60.2116,-3.1779 59.5833,-5.17253 59.5833,-7.89062 V -50.9375 c 0,-1.7822 0.2801,-3.2704 0.8402,-4.4644 0.5601,-1.1941 1.4367,-2.0636 2.63,-2.6087 1.1932,-0.545 2.6667,-0.8175 4.4205,-0.8175 h 30.625 c 2.065,0 3.629,0.4857 4.693,1.4572 1.064,0.9715 1.596,2.2305 1.596,3.7771 0,1.5809 -0.53,2.855 -1.589,3.8224 -1.06,0.9674 -2.626,1.4511 -4.7,1.4511 z m 68.724,24.2578 v 10.9766 c 0,1.5169 -0.163,2.7716 -0.489,3.764 -0.326,0.99243 -0.907,1.87114 -1.743,2.63611 -0.835,0.76497 -1.89,1.49373 -3.165,2.18628 -3.495,1.89209 -6.882,3.27779 -10.159,4.157103 -3.278,0.879313 -6.842,1.318969 -10.694,1.318969 -4.501,0 -8.613,-0.696207 -12.335,-2.088622 -3.723,-1.39242 -6.895,-3.41319 -9.517,-6.06232 -2.622,-2.64913 -4.636,-5.86042 -6.041,-9.63382 -1.405,-3.7734 -2.107,-7.9753 -2.107,-12.6059 0,-4.556 0.68,-8.7285 2.041,-12.5174 1.361,-3.7888 3.371,-7.0136 6.032,-9.6743 2.661,-2.6608 5.888,-4.6924 9.682,-6.095 3.793,-1.4026 8.084,-2.1039 12.87,-2.1039 3.931,0 7.432,0.5319 10.502,1.5958 3.07,1.0638 5.569,2.4111 7.499,4.0417 1.93,1.6307 3.39,3.3677 4.38,5.2112 0.991,1.8435 1.486,3.5007 1.486,4.9716 0,1.6781 -0.619,3.1067 -1.858,4.2859 -1.239,1.1792 -2.729,1.7688 -4.47,1.7688 -0.981,0 -1.906,-0.2207 -2.774,-0.6622 -0.869,-0.4415 -1.584,-1.0427 -2.148,-1.8036 -1.456,-2.2774 -2.655,-3.9614 -3.597,-5.0519 -0.942,-1.0905 -2.206,-2.0047 -3.792,-2.7426 -1.586,-0.7379 -3.616,-1.1069 -6.087,-1.1069 -2.562,0 -4.843,0.4383 -6.843,1.3147 -2,0.8765 -3.709,2.1473 -5.128,3.8126 -1.418,1.6652 -2.512,3.7339 -3.282,6.206 -0.769,2.4722 -1.154,5.2178 -1.154,8.237 0,6.5454 1.469,11.5412 4.407,14.9872 2.938,3.4461 7.042,5.16909 12.312,5.16909 2.609,0 5.06,-0.3417 7.351,-1.02509 2.29,-0.6834 4.489,-1.5911 6.594,-2.7231 v -8.0487 h -8.203 c -2.319,0 -4.123,-0.3789 -5.411,-1.1368 -1.288,-0.7578 -1.933,-2.0716 -1.933,-3.9413 0,-1.5043 0.544,-2.7463 1.63,-3.7259 1.087,-0.9796 2.523,-1.4694 4.308,-1.4694 h 13.164 c 1.679,0 3.146,0.1604 4.4,0.4812 1.255,0.3209 2.28,1.0527 3.077,2.1955 0.797,1.1428 1.195,2.7766 1.195,4.9014 z m 25.378,-26.8359 -10.938,45.03902 c -0.347,1.39364 -0.677,2.58413 -0.988,3.57148 -0.312,0.98734 -0.813,1.778256 -1.504,2.3727389 -0.691,0.5944821 -1.675,0.8917231 -2.951,0.8917231 -3.177,0 -4.765,-1.40625 -4.765,-4.218752 0,-0.66732 0.282,-2.30021 0.847,-4.89868 l 11.097,-45.41383 c 0.425,-2.0723 0.945,-3.6321 1.561,-4.6792 0.615,-1.0472 1.83,-1.5708 3.643,-1.5708 1.509,0 2.693,0.3896 3.553,1.1688 0.861,0.7793 1.291,1.8219 1.291,3.1281 0,0.8708 -0.282,2.4072 -0.846,4.6094 z m 45.065,2.5781 h -25.313 v 12.5 h 23.242 c 1.987,0 3.499,0.4726 4.537,1.4178 1.038,0.9453 1.557,2.1784 1.557,3.6994 0,1.5214 -0.509,2.7676 -1.526,3.7387 -1.017,0.9711 -2.54,1.4566 -4.568,1.4566 h -23.242 v 14.7266 h 26.211 c 2.039,0 3.604,0.4988 4.694,1.49653 1.089,0.99772 1.634,2.30876 1.634,3.93311 0,1.5804 -0.542,2.86743 -1.628,3.86108 C 241.779,-0.496826 240.212,0 238.164,0 h -31.523 c -2.748,0 -4.75,-0.635579 -6.006,-1.90674 -1.257,-1.27116 -1.885,-3.26579 -1.885,-5.98388 V -50.9375 c 0,-1.7822 0.28,-3.2704 0.84,-4.4644 0.56,-1.1941 1.437,-2.0636 2.63,-2.6087 1.193,-0.545 2.667,-0.8175 4.421,-0.8175 h 30.625 c 2.065,0 3.629,0.4857 4.693,1.4572 1.064,0.9715 1.596,2.2305 1.596,3.7771 0,1.5809 -0.53,2.855 -1.59,3.8224 -1.059,0.9674 -2.626,1.4511 -4.699,1.4511 z m 65.208,29.4531 c 0,1.9051 -0.471,3.97 -1.413,6.1948 -0.941,2.2247 -2.411,4.39603 -4.407,6.51395 -1.997,2.11792 -4.543,3.83657 -7.64,5.15595 -3.096,1.319374 -6.695,1.979062 -10.798,1.979062 -3.108,0 -5.923,-0.292053 -8.445,-0.876159 -2.522,-0.584107 -4.834,-1.506553 -6.936,-2.767333 -2.101,-1.26078 -4.023,-2.90924 -5.764,-4.94537 -1.554,-1.84896 -2.88,-3.9177 -3.977,-6.2064 -1.097,-2.2886 -1.918,-4.7185 -2.461,-7.2897 -0.544,-2.5712 -0.815,-5.3137 -0.815,-8.2275 0,-4.7221 0.685,-8.9473 2.057,-12.6755 1.371,-3.7282 3.345,-6.9271 5.92,-9.5966 2.576,-2.6694 5.597,-4.7029 9.064,-6.1004 3.467,-1.3975 7.149,-2.0963 11.045,-2.0963 4.755,0 9.007,0.957 12.754,2.8711 3.747,1.9141 6.627,4.2924 8.64,7.135 2.013,2.8426 3.02,5.5489 3.02,8.1189 0,1.5287 -0.543,2.881 -1.628,4.0567 -1.085,1.1758 -2.418,1.7636 -3.997,1.7636 -1.705,0 -2.977,-0.3976 -3.817,-1.1929 -0.839,-0.7953 -1.739,-2.0965 -2.699,-3.9035 -1.455,-2.7287 -3.145,-4.7555 -5.071,-6.0803 -1.925,-1.3249 -4.3,-1.9873 -7.124,-1.9873 -4.491,0 -8.081,1.7227 -10.771,5.1681 -2.689,3.4454 -4.034,8.4154 -4.034,14.91 0,4.3791 0.597,7.98 1.791,10.8029 1.194,2.8229 2.865,4.9182 5.015,6.286 2.149,1.3678 4.685,2.05171 7.608,2.05171 3.16,0 5.826,-0.77931 7.999,-2.33791 2.172,-1.5587 3.841,-3.9312 5.007,-7.1177 0.469,-1.4351 1.123,-2.6984 1.961,-3.7899 0.837,-1.0915 2.189,-1.6373 4.057,-1.6373 1.597,0 2.973,0.562 4.127,1.6861 1.155,1.1241 1.732,2.5021 1.732,4.1342 z m 62.849,-5.1953 v 10.9766 c 0,1.5169 -0.163,2.7716 -0.489,3.764 -0.326,0.99243 -0.907,1.87114 -1.743,2.63611 -0.835,0.76497 -1.89,1.49373 -3.165,2.18628 -3.495,1.89209 -6.882,3.27779 -10.159,4.157103 -3.278,0.879313 -6.842,1.318969 -10.694,1.318969 -4.501,0 -8.613,-0.696207 -12.335,-2.088622 -3.723,-1.39242 -6.895,-3.41319 -9.517,-6.06232 -2.622,-2.64913 -4.635,-5.86042 -6.041,-9.63382 -1.405,-3.7734 -2.107,-7.9753 -2.107,-12.6059 0,-4.556 0.68,-8.7285 2.041,-12.5174 1.361,-3.7888 3.371,-7.0136 6.032,-9.6743 2.661,-2.6608 5.888,-4.6924 9.682,-6.095 3.793,-1.4026 8.084,-2.1039 12.87,-2.1039 3.931,0 7.432,0.5319 10.502,1.5958 3.07,1.0638 5.57,2.4111 7.499,4.0417 1.93,1.6307 3.39,3.3677 4.38,5.2112 0.991,1.8435 1.486,3.5007 1.486,4.9716 0,1.6781 -0.619,3.1067 -1.858,4.2859 -1.239,1.1792 -2.729,1.7688 -4.47,1.7688 -0.981,0 -1.906,-0.2207 -2.774,-0.6622 -0.868,-0.4415 -1.584,-1.0427 -2.148,-1.8036 -1.456,-2.2774 -2.655,-3.9614 -3.597,-5.0519 -0.942,-1.0905 -2.206,-2.0047 -3.792,-2.7426 -1.586,-0.7379 -3.616,-1.1069 -6.087,-1.1069 -2.562,0 -4.843,0.4383 -6.843,1.3147 -2,0.8765 -3.709,2.1473 -5.128,3.8126 -1.418,1.6652 -2.512,3.7339 -3.282,6.206 -0.769,2.4722 -1.154,5.2178 -1.154,8.237 0,6.5454 1.469,11.5412 4.407,14.9872 2.938,3.4461 7.042,5.16909 12.312,5.16909 2.609,0 5.06,-0.3417 7.351,-1.02509 2.29,-0.6834 4.489,-1.5911 6.594,-2.7231 v -8.0487 h -8.203 c -2.319,0 -4.123,-0.3789 -5.411,-1.1368 -1.288,-0.7578 -1.933,-2.0716 -1.933,-3.9413 0,-1.5043 0.544,-2.7463 1.63,-3.7259 1.087,-0.9796 2.523,-1.4694 4.308,-1.4694 h 13.164 c 1.679,0 3.146,0.1604 4.4,0.4812 1.255,0.3209 2.28,1.0527 3.077,2.1955 0.797,1.1428 1.195,2.7766 1.195,4.9014 z m 45.794,-0.4297 h -3.242 V -6.875 c 0,2.61475 -0.61,4.57703 -1.831,5.886841 -1.22,1.309814 -2.81,1.964721 -4.771,1.964721 -2.096,0 -3.72,-0.679728 -4.872,-2.039182 -1.153,-1.35946 -1.729,-3.29692 -1.729,-5.81238 v -44.0625 c 0,-2.7197 0.635,-4.7148 1.905,-5.9851 1.271,-1.2703 3.266,-1.9055 5.986,-1.9055 h 18.867 c 2.596,0 4.86,0.1156 6.793,0.347 1.932,0.2313 3.658,0.6934 5.177,1.3864 1.91,0.8024 3.595,1.9479 5.056,3.4366 1.461,1.4886 2.569,3.2153 3.325,5.18 0.755,1.9647 1.133,4.0225 1.133,6.1734 0,4.4662 -1.27,8.0453 -3.812,10.7373 -2.541,2.6921 -6.127,4.4385 -10.758,5.2393 1.867,0.4834 3.757,1.8139 5.67,3.9917 1.912,2.1777 3.614,4.4875 5.105,6.9293 1.492,2.4418 2.666,4.6771 3.524,6.70593 0.858,2.02881 1.287,3.44482 1.287,4.24805 0,0.89518 -0.283,1.77764 -0.847,2.64739 -0.565,0.869756 -1.325,1.550908 -2.28,2.043462 -0.956,0.492554 -2.049,0.73883 -3.28,0.73883 -1.473,0 -2.705,-0.341898 -3.694,-1.0256953 -0.99,-0.6837967 -1.81,-1.5039067 -2.461,-2.4603267 -0.65,-0.95642 -1.544,-2.38149 -2.68,-4.27521 l -4.758,-8.61203 c -1.589,-2.2307 -3.007,-4.0504 -4.255,-5.4593 -1.249,-1.4089 -2.501,-2.3672 -3.758,-2.8748 -1.257,-0.5076 -2.857,-0.7614 -4.8,-0.7614 z m 6.641,-24.0625 h -9.883 v 14.1797 h 9.57 c 2.721,0 4.977,-0.2271 6.769,-0.6812 1.791,-0.4541 3.129,-1.1923 4.014,-2.2146 0.884,-1.0224 1.327,-2.4529 1.327,-4.2917 0,-1.4176 -0.361,-2.6679 -1.083,-3.7509 -0.722,-1.083 -1.726,-1.8953 -3.012,-2.4368 -1.258,-0.5363 -3.826,-0.8045 -7.702,-0.8045 z m 62.303,30.4688 h -20.043 c 0.019,1.7789 0.473,3.5322 1.361,5.2597 0.888,1.7275 2.054,3.021 3.499,3.88058 1.445,0.85958 3.042,1.28937 4.793,1.28937 1.215,0 2.312,-0.13885 3.29,-0.41656 0.978,-0.27771 1.927,-0.71279 2.846,-1.30524 0.918,-0.59245 1.829,-1.28355 2.732,-2.07335 0.903,-0.7898 1.96,-1.7554 3.173,-2.8967 0.689,-0.5909 1.636,-0.8863 2.842,-0.8863 1.296,0 2.369,0.3757 3.218,1.127 0.849,0.7514 1.274,1.782 1.274,3.0918 0,1.10064 -0.408,2.34678 -1.223,3.73838 -0.815,1.3916 -2.023,2.70976 -3.623,3.95447 -1.601,1.24471 -3.597,2.27244 -5.989,3.083187 -2.392,0.81075 -5.134,1.216125 -8.228,1.216125 -7.072,0 -12.584,-2.029422 -16.535,-6.088252 -3.95,-4.05884 -5.926,-9.54241 -5.926,-16.45081 0,-3.2515 0.483,-6.2653 1.448,-9.0411 0.966,-2.7759 2.388,-5.1719 4.268,-7.1878 1.88,-2.016 4.187,-3.5587 6.921,-4.628 2.734,-1.0694 5.748,-1.604 9.043,-1.604 4.316,0 8.031,0.9179 11.145,2.7539 3.115,1.8359 5.447,4.2093 6.998,7.12 1.55,2.9108 2.326,5.8695 2.326,8.8761 0,2.9915 -0.871,4.9373 -2.612,5.8374 -1.741,0.9 -4.073,1.3501 -6.998,1.3501 z m -20.039,-7.6172 h 17.735 c -0.247,-2.8996 -1.154,-5.1805 -2.721,-6.8427 -1.566,-1.6622 -3.628,-2.4933 -6.186,-2.4933 -2.414,0 -4.404,0.8427 -5.97,2.5281 -1.566,1.6854 -2.518,3.9547 -2.858,6.8079 z m 64.52,20.66404 c -2.162,1.94214 -4.485,3.43028 -6.97,4.464414 -2.484,1.034139 -5.287,1.551208 -8.409,1.551208 -2.87,0 -5.4,-0.571797 -7.59,-1.715393 -2.191,-1.143599 -3.883,-2.699689 -5.075,-4.668269 -1.192,-1.96859 -1.788,-4.11154 -1.788,-6.4288 0,-3.1136 0.985,-5.7671 2.957,-7.9605 1.971,-2.1934 4.587,-3.6452 7.847,-4.3552 0.68,-0.1571 2.368,-0.5103 5.062,-1.0596 2.695,-0.5493 5.029,-1.0588 7.001,-1.5286 1.973,-0.4698 3.869,-0.9665 5.688,-1.4902 -0.123,-2.2416 -0.623,-3.9368 -1.499,-5.0857 -0.875,-1.1489 -2.759,-1.7234 -5.65,-1.7234 -2.555,0 -4.459,0.346 -5.712,1.0379 -1.252,0.692 -2.361,1.7838 -3.326,3.2755 -0.964,1.4917 -1.683,2.5194 -2.155,3.0832 -0.473,0.5637 -1.507,0.8456 -3.104,0.8456 -1.409,0 -2.627,-0.4522 -3.654,-1.3568 -1.027,-0.9045 -1.541,-2.0799 -1.541,-3.526 0,-2.054 0.71,-4.0283 2.131,-5.9228 1.421,-1.8946 3.596,-3.4384 6.524,-4.6314 2.928,-1.193 6.541,-1.7895 10.837,-1.7895 4.794,0 8.608,0.5848 11.443,1.7544 2.834,1.1697 4.839,3.026 6.014,5.5692 1.174,2.5431 1.762,5.8441 1.762,9.9029 0,2.5082 -0.007,4.5024 -0.02,5.9827 -0.013,1.4803 -0.032,3.2882 -0.058,5.4236 0,2.4634 0.332,4.7823 0.996,6.95676 0.664,2.17448 0.996,3.60555 0.996,4.29322 0,1.32812 -0.596,2.51302 -1.789,3.554682 -1.193,1.041667 -2.549,1.5625 -4.07,1.5625 -1.317,0 -2.555,-0.558675 -3.715,-1.676025 -1.16,-1.117347 -2.204,-2.563887 -3.133,-4.339597 z m -1.277,-15.42974 c -0.854,0.5481 -2.799,1.1473 -5.837,1.7975 -3.038,0.6503 -5.079,1.112 -6.125,1.3852 -1.045,0.2733 -2.021,0.7896 -2.928,1.5491 -0.907,0.7595 -1.36,1.7994 -1.36,3.1198 0,1.4063 0.527,2.5977 1.582,3.57423 1.055,0.97656 2.468,1.46485 4.238,1.46485 1.991,0 3.813,-0.42847 5.466,-1.28541 1.654,-0.85693 2.826,-1.87987 3.518,-3.06887 0.964,-1.6361 1.446,-4.2342 1.446,-7.7942 z m 50.468,14.57036 v -0.27344 c -0.526,1.49821 -1.513,2.78178 -2.961,3.85071 -1.447,1.06893 -3.032,1.885786 -4.754,2.450565 -1.721,0.564778 -3.59,0.847167 -5.605,0.847167 -2.69,0 -5.173,-0.56549 -7.448,-1.696472 -2.276,-1.13098 -4.242,-2.742 -5.899,-4.83307 -1.656,-2.09106 -2.906,-4.52772 -3.748,-7.30992 -0.843,-2.7821 -1.264,-5.7992 -1.264,-9.0512 0,-6.8689 1.697,-12.2449 5.091,-16.1282 3.395,-3.8833 7.87,-5.8249 13.424,-5.8249 3.198,0 5.908,0.555 8.128,1.6651 2.22,1.11 3.899,2.7034 5.036,4.7802 v -14.9609 c 0,-2.369 0.503,-4.1982 1.507,-5.4877 1.005,-1.2895 2.443,-1.9342 4.314,-1.9342 1.866,0 3.309,0.6015 4.329,1.8045 1.02,1.203 1.53,2.8932 1.53,5.0705 v 47.03126 c 0,2.23185 -0.543,3.93565 -1.628,5.111392 -1.085,1.17574 -2.496,1.76361 -4.231,1.76361 -1.695,0 -3.089,-0.60618 -4.182,-1.818542 -1.092,-1.21236 -1.639,-2.89785 -1.639,-5.05646 z M 554.358,-21.5625 c 0,2.8031 0.421,5.1566 1.263,7.0602 0.842,1.9037 1.977,3.3253 3.404,4.2649 1.427,0.93951 2.983,1.40928 4.669,1.40928 1.719,0 3.29,-0.4477 4.711,-1.34308 1.421,-0.8954 2.566,-2.2932 3.437,-4.1934 0.87,-1.9003 1.305,-4.2995 1.305,-7.1979 0,-2.7087 -0.437,-5.0306 -1.312,-6.9656 -0.875,-1.9351 -2.038,-3.3998 -3.488,-4.3943 -1.45,-0.9944 -3.027,-1.4917 -4.731,-1.4917 -1.772,0 -3.358,0.5039 -4.757,1.5116 -1.399,1.0077 -2.499,2.4906 -3.3,4.4488 -0.8,1.9582 -1.201,4.2553 -1.201,6.8912 z m 70.703,3.4766 h -20.043 c 0.019,1.7789 0.473,3.5322 1.361,5.2597 0.888,1.7275 2.054,3.021 3.499,3.88058 1.445,0.85958 3.042,1.28937 4.793,1.28937 1.215,0 2.312,-0.13885 3.29,-0.41656 0.978,-0.27771 1.927,-0.71279 2.846,-1.30524 0.918,-0.59245 1.829,-1.28355 2.732,-2.07335 0.903,-0.7898 1.96,-1.7554 3.173,-2.8967 0.689,-0.5909 1.636,-0.8863 2.842,-0.8863 1.296,0 2.369,0.3757 3.218,1.127 0.849,0.7514 1.274,1.782 1.274,3.0918 0,1.10064 -0.408,2.34678 -1.223,3.73838 -0.815,1.3916 -2.023,2.70976 -3.623,3.95447 -1.601,1.24471 -3.597,2.27244 -5.989,3.083187 -2.392,0.81075 -5.134,1.216125 -8.228,1.216125 -7.072,0 -12.584,-2.029422 -16.535,-6.088252 -3.95,-4.05884 -5.926,-9.54241 -5.926,-16.45081 0,-3.2515 0.483,-6.2653 1.448,-9.0411 0.966,-2.7759 2.388,-5.1719 4.268,-7.1878 1.88,-2.016 4.187,-3.5587 6.921,-4.628 2.734,-1.0694 5.748,-1.604 9.043,-1.604 4.316,0 8.031,0.9179 11.145,2.7539 3.115,1.8359 5.447,4.2093 6.998,7.12 1.55,2.9108 2.326,5.8695 2.326,8.8761 0,2.9915 -0.871,4.9373 -2.612,5.8374 -1.741,0.9 -4.073,1.3501 -6.998,1.3501 z m -20.039,-7.6172 h 17.735 c -0.247,-2.8996 -1.154,-5.1805 -2.721,-6.8427 -1.566,-1.6622 -3.628,-2.4933 -6.186,-2.4933 -2.414,0 -4.404,0.8427 -5.97,2.5281 -1.566,1.6854 -2.518,3.9547 -2.858,6.8079 z m 49.18,10.5078 v 8.90624 c 0,2.35595 -0.585,4.15588 -1.754,5.399778 -1.169,1.243896 -2.654,1.865844 -4.457,1.865844 -1.772,0 -3.225,-0.62561 -4.357,-1.876831 -1.132,-1.251221 -1.698,-3.047481 -1.698,-5.388791 V -35.9766 c 0,-5.3125 1.993,-7.9687 5.977,-7.9687 2.056,0 3.537,0.6487 4.442,1.9461 0.905,1.2974 1.366,2.8622 1.384,4.6945 0.397,-2.0113 1.318,-3.6209 2.765,-4.8288 1.447,-1.2079 3.388,-1.8118 5.823,-1.8118 2.373,0 4.718,0.6147 7.034,1.8442 2.316,1.2294 3.474,2.9194 3.474,5.0699 0,1.5157 -0.531,2.7735 -1.593,3.7734 -1.061,1 -2.223,1.5 -3.485,1.5 -0.478,0 -1.466,-0.2409 -2.963,-0.7227 -1.497,-0.4817 -2.775,-0.7226 -3.834,-0.7226 -1.358,0 -2.466,0.3555 -3.324,1.0666 -0.857,0.711 -1.544,1.8266 -2.059,3.3468 -0.515,1.5202 -0.872,3.3543 -1.073,5.5023 -0.202,2.1481 -0.302,4.8454 -0.302,8.0921 z"
             fill="#ff0066"
             transform="translate(52.59,108)"
             id="path84" />
        </g>
      </g>
      <g
         aria-label="EEG/ECG Reader"
         transform="translate(249.64985,442.08185)"
         id="text90"
         style="font-weight:700;font-size:80px;font-family:'Arial Rounded MT Bold', 'Arial Rounded MT Bold_MSFontService', sans-serif;fill:#ff0066">
        <path
           d="M 14.060563,-129.34802 H -2.7021103 v 8.52023 H 12.732578 q 1.703829,0 2.530688,0.73369 0.851914,0.71002 0.851914,1.89338 0,1.18337 -0.826858,1.94072 -0.826858,0.73369 -2.555744,0.73369 H -2.7021103 v 9.86927 H 14.636858 q 1.753941,0 2.630913,0.78102 0.902027,0.75736 0.902027,2.03539 0,1.2307 -0.902027,2.01172 -0.876972,0.75736 -2.630913,0.75736 H -5.5835859 q -2.4304623,0 -3.5078837,-1.0177 -1.0523654,-1.01769 -1.0523654,-3.28975 v -26.08139 q 0,-1.5147 0.4760702,-2.4614 0.47607,-0.97036 1.4783224,-1.39637 1.0273092,-0.44968 2.6058565,-0.44968 H 14.060563 q 1.778998,0 2.630912,0.75736 0.876971,0.73368 0.876971,1.94072 0,1.2307 -0.876971,1.98805 -0.851914,0.73369 -2.630912,0.73369 z"
           id="path553"
           style="stroke-width:0.623409" />
        <path
           d="M 48.287485,-129.34802 H 31.524812 v 8.52023 H 46.9595 q 1.703829,0 2.530688,0.73369 0.851918,0.71002 0.851918,1.89338 0,1.18337 -0.826862,1.94072 -0.826858,0.73369 -2.555744,0.73369 H 31.524812 v 9.86927 H 48.86378 q 1.75394,0 2.630913,0.78102 0.902027,0.75736 0.902027,2.03539 0,1.2307 -0.902027,2.01172 -0.876973,0.75736 -2.630913,0.75736 H 28.643336 q -2.430462,0 -3.507883,-1.0177 -1.052365,-1.01769 -1.052365,-3.28975 v -26.08139 q 0,-1.5147 0.476069,-2.4614 0.47607,-0.97036 1.478323,-1.39637 1.027308,-0.44968 2.605856,-0.44968 h 19.644149 q 1.779,0 2.630911,0.75736 0.876973,0.73368 0.876973,1.94072 0,1.2307 -0.876973,1.98805 -0.851911,0.73369 -2.630911,0.73369 z"
           id="path555"
           style="stroke-width:0.623409" />
        <path
           d="m 91.860413,-114.17727 v 6.65051 q 0,1.32537 -0.275621,2.13006 -0.275621,0.78102 -1.027307,1.42004 -0.726638,0.63902 -1.879225,1.2307 -3.332488,1.70405 -6.414416,2.48507 -3.081928,0.781021 -6.715092,0.781021 -4.234515,0 -7.717344,-1.230701 -3.482829,-1.2307 -5.938344,-3.57376 -2.455522,-2.34307 -3.783505,-5.68016 -1.302928,-3.33709 -1.302928,-7.4552 0,-4.04712 1.277874,-7.40787 1.277873,-3.36076 3.758443,-5.70383 2.480577,-2.34306 6.038576,-3.57376 3.557993,-1.25437 8.068129,-1.25437 3.708335,0 6.564751,0.94669 2.856423,0.92303 4.635422,2.34307 1.778994,1.42004 2.681021,3.00575 0.902027,1.58571 0.902027,2.81641 0,1.32537 -1.052362,2.27206 -1.027307,0.92302 -2.480576,0.92302 -0.801802,0 -1.553488,-0.35501 -0.726638,-0.35501 -1.227764,-0.99402 -1.378093,-2.03539 -2.330236,-3.07675 -0.952136,-1.04137 -2.580802,-1.75139 -1.603603,-0.71002 -4.109235,-0.71002 -2.580795,0 -4.610361,0.85203 -2.02956,0.82835 -3.482823,2.43773 -1.428208,1.58571 -2.204955,3.90511 -0.751693,2.3194 -0.751693,5.13581 0,6.10616 2.956648,9.39592 2.981697,3.28976 8.293635,3.28976 2.580802,0 4.835873,-0.63902 2.280119,-0.63902 4.610361,-1.82238 v -5.63282 h -5.762955 q -2.079675,0 -3.157092,-0.59169 -1.052368,-0.59168 -1.052368,-2.01172 0,-1.1597 0.876972,-1.91705 0.902028,-0.75736 2.430461,-0.75736 h 8.443976 q 1.553494,0 2.630917,0.26035 1.077417,0.26034 1.728884,1.15969 0.676522,0.89936 0.676522,2.69808 z"
           id="path557"
           style="stroke-width:0.623409" />
        <path
           d="m 108.17207,-130.55506 -7.01577,27.28842 q -0.35079,1.34904 -0.62641,2.13006 -0.25056,0.78102 -0.801798,1.207032 -0.526181,0.449679 -1.553488,0.449679 -2.555747,0 -2.555747,-2.082721 0,-0.54435 0.501126,-2.72174 l 6.990717,-27.28842 q 0.55123,-2.17739 1.05236,-2.98208 0.50112,-0.80469 1.95439,-0.80469 1.25282,0 1.90428,0.56802 0.67652,0.56801 0.67652,1.56204 0,0.73368 -0.52618,2.6744 z"
           id="path559"
           style="stroke-width:0.623409" />
        <path
           d="m 137.56313,-129.34802 h -16.76268 v 8.52023 h 15.43469 q 1.70383,0 2.53069,0.73369 0.85191,0.71002 0.85191,1.89338 0,1.18337 -0.82686,1.94072 -0.82685,0.73369 -2.55574,0.73369 h -15.43469 v 9.86927 h 17.33897 q 1.75394,0 2.63091,0.78102 0.90203,0.75736 0.90203,2.03539 0,1.2307 -0.90203,2.01172 -0.87697,0.75736 -2.63091,0.75736 h -20.22044 q -2.43047,0 -3.50789,-1.0177 -1.05236,-1.01769 -1.05236,-3.28975 v -26.08139 q 0,-1.5147 0.47607,-2.4614 0.47607,-0.97036 1.47832,-1.39637 1.02731,-0.44968 2.60586,-0.44968 h 19.64415 q 1.77899,0 2.63091,0.75736 0.87697,0.73368 0.87697,1.94072 0,1.2307 -0.87697,1.98805 -0.85192,0.73369 -2.63091,0.73369 z"
           id="path561"
           style="stroke-width:0.623409" />
        <path
           d="m 178.88098,-111.02952 q 0,1.65671 -0.87697,3.59743 -0.85191,1.91706 -2.70608,3.78677 -1.85416,1.84605 -4.73564,3.00575 -2.88148,1.159701 -6.71509,1.159701 -2.90654,0 -5.28689,-0.520681 -2.38035,-0.52068 -4.33474,-1.60938 -1.92933,-1.11236 -3.558,-2.91108 -1.45326,-1.63304 -2.48057,-3.64476 -1.02731,-2.03539 -1.55349,-4.33112 -0.50113,-2.29573 -0.50113,-4.87547 0,-4.18912 1.27788,-7.50254 1.30292,-3.31342 3.70833,-5.65649 2.40541,-2.36673 5.63767,-3.59743 3.23226,-1.2307 6.89049,-1.2307 4.46002,0 7.94284,1.68038 3.48283,1.68038 5.337,4.16545 1.85417,2.4614 1.85417,4.66246 0,1.20703 -0.90203,2.13006 -0.90203,0.92302 -2.1799,0.92302 -1.42821,0 -2.15484,-0.63902 -0.70158,-0.63901 -1.57855,-2.20106 -1.45327,-2.57973 -3.43271,-3.85777 -1.9544,-1.27803 -4.83588,-1.27803 -4.5853,0 -7.31644,3.28975 -2.70608,3.28976 -2.70608,9.34859 0,4.04711 1.2027,6.74519 1.20271,2.6744 3.40766,3.99977 2.20496,1.32537 5.1616,1.32537 3.20721,0 5.41217,-1.49104 2.23001,-1.5147 3.35754,-4.42578 0.47607,-1.37271 1.17765,-2.22473 0.70158,-0.87569 2.25507,-0.87569 1.32798,0 2.28012,0.87569 0.95214,0.87569 0.95214,2.17739 z"
           id="path563"
           style="stroke-width:0.623409" />
        <path
           d="m 219.12142,-114.17727 v 6.65051 q 0,1.32537 -0.27562,2.13006 -0.27562,0.78102 -1.02731,1.42004 -0.72663,0.63902 -1.87922,1.2307 -3.33249,1.70405 -6.41442,2.48507 -3.08192,0.781021 -6.71509,0.781021 -4.23452,0 -7.71734,-1.230701 -3.48283,-1.2307 -5.93835,-3.57376 -2.45552,-2.34307 -3.7835,-5.68016 -1.30293,-3.33709 -1.30293,-7.4552 0,-4.04712 1.27787,-7.40787 1.27787,-3.36076 3.75845,-5.70383 2.48057,-2.34306 6.03857,-3.57376 3.558,-1.25437 8.06813,-1.25437 3.70834,0 6.56475,0.94669 2.85643,0.92303 4.63542,2.34307 1.779,1.42004 2.68103,3.00575 0.90202,1.58571 0.90202,2.81641 0,1.32537 -1.05236,2.27206 -1.02731,0.92302 -2.48057,0.92302 -0.80181,0 -1.5535,-0.35501 -0.72663,-0.35501 -1.22776,-0.99402 -1.37809,-2.03539 -2.33023,-3.07675 -0.95214,-1.04137 -2.5808,-1.75139 -1.60361,-0.71002 -4.10924,-0.71002 -2.5808,0 -4.61036,0.85203 -2.02956,0.82835 -3.48283,2.43773 -1.42821,1.58571 -2.20495,3.90511 -0.75169,2.3194 -0.75169,5.13581 0,6.10616 2.95664,9.39592 2.9817,3.28976 8.29364,3.28976 2.5808,0 4.83587,-0.63902 2.28012,-0.63902 4.61036,-1.82238 v -5.63282 h -5.76295 q -2.07967,0 -3.1571,-0.59169 -1.05236,-0.59168 -1.05236,-2.01172 0,-1.1597 0.87697,-1.91705 0.90203,-0.75736 2.43046,-0.75736 h 8.44398 q 1.55349,0 2.63091,0.26035 1.07742,0.26034 1.72889,1.15969 0.67652,0.89936 0.67652,2.69808 z"
           id="path565"
           style="stroke-width:0.623409" />
        <path
           d="m 249.03866,-114.91096 h -2.60586 v 11.14731 q 0,2.20106 -1.02731,3.24242 -1.02731,1.041361 -2.68102,1.041361 -1.779,0 -2.7562,-1.088701 -0.97719,-1.08869 -0.97719,-3.19508 v -26.69674 q 0,-2.27206 1.07741,-3.28975 1.07743,-1.0177 3.48283,-1.0177 h 12.1022 q 2.50563,0 4.28463,0.21301 1.779,0.18934 3.20721,0.80469 1.72889,0.68635 3.05687,1.96438 1.32798,1.27804 2.0045,2.98209 0.70158,1.68038 0.70158,3.57376 0,3.88144 -2.33023,6.20084 -2.30519,2.3194 -7.01577,3.28975 1.97945,0.99403 3.7835,2.93475 1.80406,1.94072 3.20721,4.14178 1.42821,2.1774 2.20496,3.95244 0.8018,1.75139 0.8018,2.41407 0,0.68635 -0.47607,1.3727 -0.45102,0.66269 -1.25282,1.041367 -0.8018,0.402344 -1.85417,0.402344 -1.25282,0 -2.10473,-0.568011 -0.85191,-0.54435 -1.47832,-1.39638 -0.60135,-0.85202 -1.65371,-2.50873 l -2.98171,-4.68613 q -1.6036,-2.57974 -2.88147,-3.92877 -1.25282,-1.34904 -2.55574,-1.84606 -1.30293,-0.49701 -3.28238,-0.49701 z m 4.25957,-14.57907 h -6.86543 v 9.53793 h 6.66498 q 2.68102,0 4.51013,-0.42601 1.82912,-0.44968 2.78125,-1.49104 0.9772,-1.06503 0.9772,-2.91108 0,-1.44371 -0.77675,-2.5324 -0.77674,-1.11237 -2.15483,-1.65671 -1.30293,-0.52069 -5.13655,-0.52069 z"
           id="path567"
           style="stroke-width:0.623409" />
        <path
           d="m 293.2881,-111.02952 h -13.38007 q 0.0251,2.20106 0.92709,3.88144 0.92708,1.68038 2.43046,2.5324 1.52844,0.85203 3.35754,0.85203 1.22776,0 2.23001,-0.26034 1.02731,-0.28401 1.97946,-0.85203 0.95213,-0.59168 1.75393,-1.25436 0.80181,-0.66269 2.07968,-1.79872 0.52618,-0.42601 1.50338,-0.42601 1.05237,0 1.70383,0.54435 0.65146,0.54434 0.65146,1.53837 0,0.87569 -0.72663,2.05906 -0.72663,1.1597 -2.20496,2.24839 -1.45326,1.06503 -3.68327,1.77505 -2.20496,0.710021 -5.08643,0.710021 -6.58982,0 -10.24803,-3.550101 -3.65823,-3.55009 -3.65823,-9.63259 0,-2.86375 0.90203,-5.30148 0.90202,-2.4614 2.63091,-4.21279 1.72889,-1.75138 4.25958,-2.6744 2.53068,-0.94669 5.61261,-0.94669 4.00901,0 6.86543,1.60937 2.88147,1.58571 4.30968,4.11812 1.42822,2.5324 1.42822,5.15947 0,2.43773 -1.47833,3.17142 -1.47832,0.71002 -4.15935,0.71002 z m -13.38007,-3.66843 h 12.40288 q -0.25057,-3.31343 -1.90428,-4.94647 -1.62867,-1.65671 -4.30969,-1.65671 -2.55574,0 -4.20946,1.68037 -1.62866,1.65672 -1.97945,4.92281 z"
           id="path569"
           style="stroke-width:0.623409" />
        <path
           d="m 321.97758,-103.12464 q -2.48057,1.82239 -4.81081,2.74541 -2.30518,0.899361 -5.18666,0.899361 -2.63091,0 -4.63541,-0.970361 -1.97945,-0.99403 -3.05688,-2.67441 -1.07742,-1.68037 -1.07742,-3.64476 0,-2.65074 1.779,-4.52046 1.779,-1.86972 4.88598,-2.50874 0.65146,-0.142 3.23226,-0.63901 2.58081,-0.49702 4.40992,-0.89936 1.85417,-0.42601 4.00901,-1.0177 -0.12528,-2.55607 -1.10248,-3.73943 -0.95214,-1.20703 -3.98396,-1.20703 -2.60585,0 -3.93384,0.68635 -1.30292,0.68635 -2.25506,2.05905 -0.92709,1.37271 -1.32799,1.82239 -0.37584,0.42601 -1.65371,0.42601 -1.1526,0 -2.00451,-0.68635 -0.82686,-0.71002 -0.82686,-1.79872 0,-1.70405 1.27787,-3.31342 1.27787,-1.60938 3.98396,-2.65074 2.70608,-1.04136 6.74014,-1.04136 4.51014,0 7.09094,1.01769 2.5808,0.99403 3.63316,3.17142 1.07743,2.17739 1.07743,5.77483 0,2.27206 -0.0251,3.85777 0,1.58571 -0.0251,3.52643 0,1.82238 0.6264,3.81044 0.65146,1.96438 0.65146,2.5324 0,0.99403 -1.00225,1.82238 -0.97719,0.804691 -2.23001,0.804691 -1.05236,0 -2.07967,-0.923021 -1.02731,-0.9467 -2.1799,-2.72175 z m -0.45101,-9.34859 q -1.50338,0.52069 -4.38486,1.11237 -2.85642,0.56801 -3.95889,0.85202 -1.10248,0.26034 -2.10473,1.06503 -1.00226,0.78102 -1.00226,2.20106 0,1.46738 1.17765,2.50874 1.17764,1.01769 3.08192,1.01769 2.02957,0 3.7334,-0.82835 1.72888,-0.85203 2.53068,-2.1774 0.92709,-1.46737 0.92709,-4.82813 z"
           id="path571"
           style="stroke-width:0.623409" />
        <path
           d="m 353.92438,-103.17197 v -0.63902 q -1.3781,1.49104 -2.73114,2.43774 -1.32798,0.92302 -2.90653,1.396368 -1.55349,0.497013 -3.40766,0.497013 -2.45552,0 -4.56025,-0.970361 -2.07967,-0.99403 -3.60811,-2.81641 -1.52844,-1.82238 -2.33024,-4.28378 -0.77674,-2.4614 -0.77674,-5.32515 0,-6.05883 3.13204,-9.44326 3.13204,-3.38443 8.24352,-3.38443 2.95665,0 4.98621,0.97036 2.02956,0.9467 3.9589,2.93475 v -9.53793 q 0,-1.98805 0.82686,-3.00575 0.85191,-1.01769 2.4054,-1.01769 1.55349,0 2.38035,0.94669 0.85192,0.92303 0.85192,2.74541 v 28.49545 q 0,1.84605 -0.90203,2.76908 -0.90203,0.923021 -2.33024,0.923021 -1.40315,0 -2.33024,-0.946691 -0.90202,-0.97036 -0.90202,-2.74541 z m -13.45524,-9.49059 q 0,2.62707 0.85192,4.47312 0.87696,1.84605 2.38034,2.79274 1.50338,0.92303 3.28238,0.92303 1.80405,0 3.28238,-0.87569 1.50338,-0.89936 2.38035,-2.72174 0.90203,-1.84606 0.90203,-4.59146 0,-2.57974 -0.90203,-4.42579 -0.87697,-1.86972 -2.40541,-2.84008 -1.50338,-0.99403 -3.30743,-0.99403 -1.87923,0 -3.35755,1.0177 -1.47832,0.99402 -2.30518,2.88741 -0.8018,1.86972 -0.8018,4.35479 z"
           id="path573"
           style="stroke-width:0.623409" />
        <path
           d="m 386.34725,-111.02952 h -13.38008 q 0.0251,2.20106 0.92709,3.88144 0.92708,1.68038 2.43046,2.5324 1.52844,0.85203 3.35754,0.85203 1.22777,0 2.23002,-0.26034 1.02731,-0.28401 1.97944,-0.85203 0.95215,-0.59168 1.75395,-1.25436 0.8018,-0.66269 2.07968,-1.79872 0.52618,-0.42601 1.50337,-0.42601 1.05237,0 1.70383,0.54435 0.65146,0.54434 0.65146,1.53837 0,0.87569 -0.72663,2.05906 -0.72663,1.1597 -2.20495,2.24839 -1.45327,1.06503 -3.68328,1.77505 -2.20496,0.710021 -5.08644,0.710021 -6.5898,0 -10.24803,-3.550101 -3.65821,-3.55009 -3.65821,-9.63259 0,-2.86375 0.90202,-5.30148 0.90203,-2.4614 2.63091,-4.21279 1.72889,-1.75138 4.25957,-2.6744 2.5307,-0.94669 5.61262,-0.94669 4.00901,0 6.86543,1.60937 2.88148,1.58571 4.30969,4.11812 1.42821,2.5324 1.42821,5.15947 0,2.43773 -1.47833,3.17142 -1.47832,0.71002 -4.15934,0.71002 z m -13.38008,-3.66843 h 12.40288 q -0.25056,-3.31343 -1.90428,-4.94647 -1.62866,-1.65671 -4.30969,-1.65671 -2.55574,0 -4.20946,1.68037 -1.62866,1.65672 -1.97945,4.92281 z"
           id="path575"
           style="stroke-width:0.623409" />
        <path
           d="m 404.53813,-108.80479 v 5.39615 q 0,1.96438 -0.9772,2.95841 -0.97719,0.970361 -2.48057,0.970361 -1.47833,0 -2.43046,-0.994031 -0.95215,-0.99402 -0.95215,-2.93474 v -17.98716 q 0,-4.35479 3.33249,-4.35479 1.70383,0 2.45552,1.01769 0.75169,1.0177 0.82686,3.00575 1.22776,-1.98805 2.50563,-3.00575 1.30293,-1.01769 3.45778,-1.01769 2.15484,0 4.1844,1.01769 2.02956,1.0177 2.02956,2.69808 0,1.18336 -0.87697,1.96439 -0.85192,0.75735 -1.85417,0.75735 -0.37584,0 -1.82911,-0.42601 -1.42821,-0.44968 -2.53069,-0.44968 -1.50338,0 -2.45552,0.75735 -0.95213,0.73369 -1.47832,2.20106 -0.52618,1.46738 -0.72663,3.50277 -0.20045,2.01172 -0.20045,4.9228 z"
           id="path577"
           style="stroke-width:0.623409" />
      </g>
    </g>
  </g>
</svg>
